<svg width="30" height="19" viewBox="0 0 30 19" fill="none" xmlns="http://www.w3.org/2000/svg">
<path d="M29.9401 8.9808C27.3872 3.52525 21.5227 0 15 0C8.47729 0 2.61293 3.52514 0.0599414 8.9808C-0.0199805 9.15154 -0.0199805 9.34438 0.0599414 9.51512C2.61275 14.9713 8.47717 18.4968 15 18.4968C21.523 18.4968 27.3874 14.9713 29.9401 9.51512C30.02 9.34438 30.02 9.15154 29.9401 8.9808ZM15 17.1316C9.18785 17.1316 3.95174 14.0469 1.57084 9.24804C3.9518 4.44968 9.18803 1.36525 15 1.36525C20.8121 1.36525 26.0483 4.44968 28.4292 9.24793C26.0483 14.0468 20.8121 17.1316 15 17.1316Z" fill="#D9D9D9"/>
<path d="M15.0001 4.0199C11.8281 4.0199 9.24768 6.36539 9.24768 9.24836C9.24768 12.1313 11.8282 14.4768 15.0001 14.4768C18.1719 14.4768 20.7524 12.1314 20.7524 9.24836C20.7524 6.36534 18.1719 4.0199 15.0001 4.0199ZM15.0001 13.1117C12.6564 13.1117 10.7497 11.3786 10.7497 9.24847C10.7497 7.11829 12.6564 5.3852 15.0001 5.3852C17.3437 5.3852 19.2505 7.11829 19.2505 9.24847C19.2505 11.3786 17.3437 13.1117 15.0001 13.1117Z" fill="#D9D9D9"/>
<path d="M15 6.47253C13.3161 6.47253 11.9459 7.71779 11.9459 9.24845C11.9459 9.62541 12.2821 9.93105 12.6969 9.93105C13.1118 9.93105 13.4479 9.62541 13.4479 9.24845C13.4479 8.47058 14.1441 7.83773 15 7.83773C15.4148 7.83773 15.751 7.53208 15.751 7.15513C15.751 6.77807 15.4147 6.47253 15 6.47253Z" fill="#D9D9D9"/>
</svg>
